<svg xmlns="http://www.w3.org/2000/svg" preserveAspectRatio="xMidYMid" width="60" height="40" viewBox="0 0 60 40"><defs><style>.cls-1 { fill: #000; fill-rule: evenodd; }</style></defs><path d="M58.738 40l-.044.067-.102-.067h-57.184l-.102.067-.044-.067h-1.262v-40h1.262l.044-.067.102.067h57.184l.102-.067.044.067h1.262v40h-1.262zm-3.187-2l-8.76-5.761c-2.012 1.119-4.326 1.761-6.791 1.761h-9v4h24.551zm-24.551-6h9c1.73 0 3.371-.374 4.857-1.033l-13.857-9.113v10.146zm-2-10.146l-13.857 9.113c1.486.659 3.127 1.033 4.857 1.033h9v-10.146zm-.82-1.854l-15.002-9.866c-3.127 2.166-5.178 5.775-5.178 9.866 0 4.091 2.051 7.7 5.178 9.866l15.002-9.866zm.82-1.854v-10.146h-9c-1.73 0-3.371.374-4.857 1.033l13.857 9.113zm2 0l13.857-9.113c-1.486-.659-3.127-1.033-4.857-1.033h-9v10.146zm.82 1.854l15.002 9.866c3.127-2.166 5.178-5.775 5.178-9.866 0-4.091-2.051-7.7-5.178-9.866l-15.002 9.866zm-2.82 18v-4h-9c-2.465 0-4.779-.642-6.791-1.761l-8.76 5.761h24.551zm-27-.783l9.403-6.184c-3.284-2.562-5.403-6.546-5.403-11.033 0-4.487 2.119-8.471 5.403-11.033l-9.403-6.184v34.434zm2.449-35.217l8.76 5.761c2.012-1.119 4.326-1.761 6.791-1.761h9v-4h-24.551zm26.551 0v4h9c2.465 0 4.779.642 6.791 1.761l8.76-5.761h-24.551zm27 .783l-9.403 6.184c3.284 2.562 5.403 6.546 5.403 11.033 0 4.487-2.119 8.471-5.403 11.033l9.403 6.184v-34.434z" class="cls-1"/></svg>